<svg width="170" height="39" viewBox="0 0 170 39" fill="none" xmlns="http://www.w3.org/2000/svg">
<g clip-path="url(#clip0_6_19)">
<path d="M0 39H39.007V0H0V39ZM24.9953 2.96219C28.4544 4.10101 31.4676 6.3113 33.6048 9.27741C35.7419 12.2435 36.8935 15.8138 36.8953 19.4783C36.8953 27.0643 32.0244 33.5871 24.9953 35.9943V2.96219ZM19.5268 2.0829C20.761 2.084 21.9921 2.20718 23.2023 2.45066C23.2023 11.2871 14.6559 18.5689 5.83379 18.5689H2.1582C2.43153 14.1133 4.37896 9.9296 7.60493 6.86755C10.8309 3.80551 15.0935 2.09479 19.5268 2.0829ZM5.79062 20.401C14.6094 20.401 23.1559 27.6661 23.1559 36.5025C21.9469 36.7606 20.716 36.9006 19.4803 36.9204C10.2 36.9204 2.43379 29.4715 2.06855 20.401H5.79062Z" fill="#011E41"/>
<path d="M52.1023 22.9152V20.4478H60.2338V17.3018H52.1023V12.7214H60.7352V9.57532H48.8086V22.7146C48.8086 26.058 50.233 28.3147 53.54 28.7761C53.633 28.7761 53.6795 28.8229 53.7227 28.8229H53.7691C54.1207 28.8629 54.4746 28.8785 54.8283 28.8697H60.9842V25.7236H54.8582C53.8023 25.8172 52.1023 25.2589 52.1023 22.9019" fill="#011E41"/>
<path d="M63.3151 18.7361V28.9165H66.6686V18.6926V9.62213H63.3151V18.7361Z" fill="#011E41"/>
<path d="M76.178 14.5268C71.9977 14.5268 68.8268 17.4422 68.8268 21.9289V22.0226C68.8268 26.4157 71.8582 29.2408 76.2709 29.2408C77.3722 29.2758 78.468 29.0704 79.483 28.6387C80.498 28.207 81.4082 27.5593 82.1512 26.74L80.1291 24.7975C79.6527 25.335 79.0635 25.759 78.4042 26.0388C77.745 26.3187 77.0322 26.4474 76.3174 26.4157C73.8338 26.4157 72.1803 24.9814 72.0907 22.7614H83.0244C83.0709 22.2064 83.0709 21.6046 83.0709 21.6046C83.1174 17.6729 80.3582 14.5268 76.178 14.5268ZM72.2268 20.401C72.3662 18.6892 74.1094 17.3486 76.178 17.3486C78.1535 17.3486 79.7174 18.7361 79.7174 20.401H72.2268Z" fill="#011E41"/>
<path d="M92.4442 17.489C93.1078 17.4718 93.7673 17.5992 94.3776 17.8623C94.9879 18.1254 95.5346 18.5181 95.9803 19.0135L98.0488 16.8972C97.337 16.1194 96.4694 15.5026 95.5032 15.0877C94.537 14.6727 93.4943 14.469 92.4442 14.49C88.2174 14.49 84.8074 17.6361 84.8074 21.939C84.8074 26.2418 88.2074 29.3879 92.4442 29.3879C93.4943 29.4089 94.537 29.2052 95.5032 28.7902C96.4694 28.3753 97.337 27.7585 98.0488 26.9807L95.9803 24.8543C95.5298 25.3439 94.9823 25.7328 94.3732 25.996C93.7641 26.2592 93.1069 26.3908 92.4442 26.3822C91.8702 26.3929 91.3 26.2861 90.7682 26.0683C90.2365 25.8505 89.7542 25.5262 89.3506 25.1151C88.947 24.704 88.6305 24.2147 88.4203 23.6768C88.2101 23.1389 88.1106 22.5636 88.1278 21.9858C88.1278 19.3947 90.0104 17.499 92.4442 17.499" fill="#011E41"/>
<path d="M103.471 22.9152V17.9972H106.502V14.9882H103.471V9.66895H100.151V23.1794C100.244 26.3254 101.668 28.4518 104.885 28.9165C104.975 28.9165 105.021 28.96 105.068 28.96H105.114C105.465 28.9999 105.818 29.0155 106.17 29.0068H106.539V25.8607H106.207C105.151 25.8172 103.451 25.2589 103.451 22.9019" fill="#011E41"/>
<path d="M112.615 17.0243V14.9447H109.295V28.9332H112.615V21.5779C112.615 19.2677 114.083 17.8334 116.38 17.8334C116.843 17.8229 117.306 17.8689 117.758 17.9704V14.7575C117.43 14.6938 117.096 14.6636 116.762 14.6672C114.787 14.6672 113.269 15.59 112.628 17.0076" fill="#011E41"/>
<path d="M125.893 14.5268C121.666 14.5268 118.256 17.7197 118.256 21.9289C118.256 26.1382 121.61 29.3311 125.893 29.3311C130.176 29.3311 133.53 26.0947 133.53 21.9289C133.53 17.7631 130.083 14.5268 125.893 14.5268ZM125.893 26.3254C125.027 26.3354 124.178 26.086 123.454 25.609C122.729 25.132 122.162 24.4489 121.824 23.6464C121.486 22.844 121.392 21.9585 121.555 21.1024C121.718 20.2463 122.13 19.4582 122.738 18.8383C123.347 18.2184 124.125 17.7947 124.973 17.621C125.821 17.4472 126.702 17.5313 127.502 17.8625C128.303 18.1938 128.988 18.7572 129.47 19.4813C129.952 20.2053 130.209 21.0573 130.209 21.9289C130.227 22.5067 130.127 23.082 129.917 23.62C129.707 24.1579 129.39 24.6472 128.987 25.0583C128.583 25.4694 128.101 25.7937 127.569 26.0115C127.037 26.2293 126.467 26.3361 125.893 26.3254Z" fill="#011E41"/>
<path d="M135.542 18.4151V28.9165H138.895V18.5522V9.62213H135.542V18.4151Z" fill="#011E41"/>
<path d="M150.885 23.0857C150.885 25.3057 149.6 26.2318 147.854 26.2318C146.107 26.2318 144.822 25.3057 144.822 23.0857V14.9447H141.469V23.3632C141.469 27.3418 144.361 29.2843 147.854 29.2843C151.346 29.2843 154.285 27.3418 154.285 23.3164V14.9882H150.931V23.0857H150.885Z" fill="#011E41"/>
<path d="M166.783 24.4732L164.717 21.5144L167.291 17.9972L169.542 14.9447H165.909L162.878 19.154L159.846 14.9447H156.217L158.283 17.7665L161.042 21.5578L158.146 25.5832L155.756 28.9165H159.342L162.878 24.0118L166.417 28.9165H170L166.783 24.4732Z" fill="#011E41"/>
</g>
<defs>
<clipPath id="clip0_6_19">
<rect width="170" height="39" fill="white"/>
</clipPath>
</defs>
</svg>
